<svg width="218" height="44" viewBox="0 0 218 44" fill="none" xmlns="http://www.w3.org/2000/svg">
<g clip-path="url(#clip0_543_1165)">
<path d="M78.3915 20.35V31.1761C78.3915 31.9982 78.1509 32.6453 77.6655 33.1133C77.1802 33.5814 76.5113 33.8174 75.659 33.8174C74.8066 33.8174 74.1295 33.5814 73.632 33.1133C73.1303 32.6453 72.8815 31.9982 72.8815 31.1761V20.35C72.8815 18.7953 72.5634 17.6598 71.9313 16.9394C71.2991 16.2191 70.3081 15.8609 68.954 15.8609C67.3675 15.8609 66.0951 16.3615 65.1407 17.3586C64.1863 18.3558 63.7092 19.6907 63.7092 21.3635V31.1761C63.7092 31.9982 63.4604 32.6453 62.9587 33.1133C62.4571 33.5814 61.7842 33.8174 60.9318 33.8174C60.0794 33.8174 59.4105 33.5814 58.9252 33.1133C58.4398 32.6453 58.1992 31.9982 58.1992 31.1761V4.85989C58.1992 4.09881 58.4562 3.48018 58.97 3.01214C59.4839 2.5441 60.1528 2.30804 60.9766 2.30804C61.8005 2.30804 62.4612 2.52782 62.9628 2.96737C63.4604 3.40693 63.7133 4.00927 63.7133 4.77035V15.0266C64.4474 13.8829 65.4262 13.0079 66.6456 12.4096C67.8651 11.8073 69.2558 11.5061 70.8138 11.5061C75.8629 11.502 78.3915 14.4527 78.3915 20.35Z" fill="#393A3E"/>
<path d="M104.477 28.229C104.787 28.6116 104.938 29.1244 104.938 29.7674C104.938 30.6791 104.396 31.4402 103.307 32.0548C102.307 32.6123 101.174 33.06 99.9093 33.3978C98.645 33.7356 97.4378 33.9025 96.2918 33.9025C92.821 33.9025 90.0722 32.9054 88.0452 30.9111C86.0182 28.9168 85.0027 26.1859 85.0027 22.7265C85.0027 20.5246 85.4432 18.5751 86.3241 16.8739C87.205 15.1727 88.449 13.854 90.0518 12.9139C91.6546 11.9737 93.4695 11.5057 95.4965 11.5057C97.4378 11.5057 99.1263 11.933 100.57 12.7836C102.01 13.6342 103.127 14.8389 103.922 16.3937C104.718 17.9484 105.113 19.7839 105.113 21.8962C105.113 23.1579 104.555 23.7887 103.437 23.7887H90.427C90.6024 25.8115 91.1774 27.3011 92.1481 28.2575C93.1187 29.2099 94.5299 29.6861 96.3815 29.6861C97.3236 29.6861 98.1515 29.568 98.8734 29.332C99.5953 29.0959 100.411 28.7744 101.32 28.3633C102.201 27.8953 102.85 27.6592 103.262 27.6592C103.763 27.6552 104.167 27.8464 104.477 28.229ZM92.042 16.7844C91.1448 17.7245 90.6105 19.0717 90.4311 20.834H100.399C100.338 19.0432 99.8971 17.6879 99.0773 16.764C98.2535 15.8402 97.1074 15.3762 95.6392 15.3762C94.1343 15.3762 92.9352 15.8442 92.042 16.7844Z" fill="#393A3E"/>
<path d="M127.455 12.0104C127.851 11.7621 128.287 11.6359 128.756 11.6359C129.433 11.6359 130.041 11.8639 130.587 12.3197C131.13 12.7755 131.403 13.3412 131.403 14.0128C131.403 14.3343 131.313 14.6721 131.138 15.0262L119.098 40.1987C118.597 41.1958 117.818 41.6964 116.761 41.6964C116.084 41.6964 115.489 41.4848 114.975 41.0574C114.461 40.6301 114.204 40.0969 114.204 39.4498C114.204 39.1283 114.294 38.762 114.469 38.3509L117.467 32.0588L109.261 15.0221C109.114 14.7291 109.041 14.3913 109.041 14.0087C109.041 13.3331 109.326 12.7633 109.901 12.2912C110.477 11.8232 111.129 11.5871 111.863 11.5871C112.361 11.5871 112.818 11.7133 113.229 11.9615C113.641 12.2098 113.964 12.6005 114.2 13.1296L120.375 26.7272L126.505 13.1703C126.741 12.6493 127.059 12.2586 127.455 12.0104Z" fill="#393A3E"/>
<path d="M156.538 3.00769C157.068 3.47573 157.333 4.09436 157.333 4.85543V31.1757C157.333 31.9693 157.085 32.6001 156.583 33.0682C156.081 33.5362 155.421 33.7723 154.597 33.7723C153.773 33.7723 153.112 33.5362 152.611 33.0682C152.109 32.6001 151.86 31.9693 151.86 31.1757V30.0768C151.212 31.2815 150.278 32.2176 149.058 32.8932C147.839 33.5688 146.448 33.9066 144.89 33.9066C143.039 33.9066 141.383 33.4385 139.927 32.4984C138.471 31.5582 137.341 30.2314 136.529 28.5139C135.722 26.7964 135.318 24.8225 135.318 22.5963C135.318 20.3659 135.722 18.4164 136.529 16.7437C137.337 15.071 138.463 13.7808 139.902 12.8691C141.342 11.9615 143.002 11.5057 144.886 11.5057C146.444 11.5057 147.827 11.8272 149.034 12.4743C150.241 13.1215 151.167 14.0291 151.811 15.2012V4.76997C151.811 4.03738 152.052 3.44317 152.537 2.98734C153.023 2.5315 153.675 2.30359 154.499 2.30359C155.335 2.30359 156.012 2.53964 156.538 3.00769ZM150.433 27.8302C151.387 26.6255 151.864 24.912 151.864 22.6817C151.864 20.4514 151.387 18.742 150.433 17.5536C149.478 16.3652 148.133 15.771 146.399 15.771C144.633 15.771 143.267 16.3571 142.296 17.5333C141.326 18.7054 140.84 20.3944 140.84 22.5963C140.84 24.8266 141.326 26.5563 142.296 27.7895C143.267 29.0227 144.617 29.6372 146.354 29.6372C148.116 29.6372 149.474 29.0349 150.433 27.8302Z" fill="#393A3E"/>
<path d="M179.076 12.0755C179.516 12.4581 179.736 13.0278 179.736 13.793C179.736 14.5866 179.545 15.1727 179.161 15.5553C178.778 15.9378 178.089 16.1861 177.089 16.3041L175.768 16.4344C174.035 16.6094 172.762 17.1995 171.955 18.1967C171.147 19.1938 170.743 20.4392 170.743 21.9369V31.1756C170.743 32.0263 170.478 32.6815 169.948 33.1333C169.418 33.5891 168.757 33.817 167.962 33.817C167.167 33.817 166.514 33.5891 166 33.1333C165.486 32.6775 165.229 32.0263 165.229 31.1756V14.143C165.229 13.3209 165.486 12.69 166 12.2505C166.514 11.8109 167.154 11.5912 167.917 11.5912C168.68 11.5912 169.3 11.8028 169.769 12.2301C170.238 12.6575 170.474 13.2639 170.474 14.0575V15.8198C171.033 14.5296 171.865 13.5325 172.966 12.8284C174.067 12.1243 175.295 11.7295 176.649 11.64L177.265 11.5952C178.032 11.5342 178.635 11.6929 179.076 12.0755Z" fill="#393A3E"/>
<path d="M203.375 12.2953C203.877 12.7633 204.125 13.3942 204.125 14.1878V31.2652C204.125 32.0304 203.868 32.6449 203.354 33.113C202.841 33.581 202.172 33.8171 201.348 33.8171C200.553 33.8171 199.92 33.5973 199.451 33.1577C198.982 32.7182 198.746 32.1158 198.746 31.3548V30.2559C198.069 31.428 197.159 32.3315 196.009 32.9624C194.863 33.5932 193.57 33.9107 192.127 33.9107C186.833 33.9107 184.19 30.9478 184.19 25.022V14.1959C184.19 13.4023 184.439 12.7715 184.94 12.3034C185.438 11.8354 186.103 11.5993 186.927 11.5993C187.779 11.5993 188.456 11.8354 188.954 12.3034C189.455 12.7715 189.704 13.4023 189.704 14.1959V25.0667C189.704 26.5929 190.014 27.7244 190.63 28.457C191.246 29.1896 192.216 29.5559 193.542 29.5559C195.071 29.5559 196.299 29.0512 197.225 28.0378C198.15 27.0244 198.615 25.6813 198.615 24.0126V14.1878C198.615 13.3942 198.864 12.7633 199.366 12.2953C199.863 11.8272 200.528 11.5912 201.352 11.5912C202.2 11.5912 202.877 11.8272 203.375 12.2953Z" fill="#393A3E"/>
<path d="M213.542 24.1347C213.232 23.8417 213.049 23.4143 212.992 22.8567L211.36 5.73454L211.316 5.29499C211.316 4.38739 211.63 3.65888 212.266 3.11757C212.898 2.57627 213.697 2.30359 214.668 2.30359C215.696 2.30359 216.536 2.62104 217.18 3.25188C217.825 3.88272 218.09 4.7252 217.976 5.78338L216.344 22.8608C216.287 23.4184 216.104 23.8457 215.794 24.1388C215.484 24.4318 215.108 24.5783 214.668 24.5783C214.223 24.5742 213.852 24.4277 213.542 24.1347ZM212.327 32.8688C211.711 32.2379 211.401 31.4524 211.401 30.5123C211.401 29.5721 211.711 28.7907 212.327 28.1558C212.943 27.5249 213.722 27.2075 214.664 27.2075C215.606 27.2075 216.385 27.5249 217.001 28.1558C217.617 28.7866 217.927 29.5721 217.927 30.5123C217.927 31.4524 217.617 32.2379 217.001 32.8688C216.385 33.4996 215.606 33.817 214.664 33.817C213.726 33.817 212.947 33.5037 212.327 32.8688Z" fill="#393A3E"/>
<path d="M42.5127 19.2175C41.5788 9.3764 33.7849 1.36271 23.9844 0.162082C17.3651 -0.647834 10.8886 1.57028 6.21473 6.2507C1.54085 10.927 -0.661499 17.3982 0.1705 24.0037C1.39811 33.7349 9.40405 41.48 19.2086 42.4161C22.4673 42.7295 25.7381 42.3021 28.7603 41.1748C30.7465 43.0266 33.2628 43.9952 36.1218 43.9952C37.3372 43.9952 38.4506 43.3766 39.0991 42.3469C39.7435 41.3253 39.8169 40.0596 39.2989 38.9648C39.2785 38.9241 39.095 38.4927 38.9359 37.7886C38.3568 35.2286 39.2296 32.8477 40.0697 31.3011C42.0641 27.6056 42.9124 23.4258 42.5127 19.2175ZM35.6161 40.7108C35.612 40.7026 35.612 40.6986 35.6079 40.6904C35.6079 40.6986 35.612 40.7067 35.6161 40.7108ZM36.4766 29.372C35.3102 31.529 34.0989 34.8989 34.9554 38.688C35.0614 39.152 35.1797 39.559 35.2898 39.8887C33.5075 39.7014 32.0189 38.8915 30.8606 37.4752L29.8655 36.2583L28.434 36.9095C25.6974 38.1549 22.6385 38.6595 19.596 38.3665C11.6757 37.6095 5.20736 31.354 4.2163 23.495C3.53928 18.143 5.32155 12.905 9.10225 9.12406C12.883 5.33903 18.1278 3.54826 23.4869 4.20352C31.4031 5.17216 37.6961 11.6474 38.4506 19.6001C38.7728 23.0066 38.0917 26.3846 36.4766 29.372Z" fill="#F0216C"/>
</g>
<defs>
<clipPath id="clip0_543_1165">
<rect width="218" height="44" fill="white"/>
</clipPath>
</defs>
</svg>
