<svg width="111" height="40" viewBox="0 0 111 40" fill="none" xmlns="http://www.w3.org/2000/svg">
<path d="M19.8936 4.75061V28.4561C24.9025 28.4086 32.6522 25.1782 32.6522 16.5796C32.6522 7.98101 24.8552 4.79812 19.8936 4.75061Z" fill="#F15B5B"/>
<path d="M4.72559 35.2494H8.78944C12.2862 35.2494 15.1688 32.3991 15.1688 28.8361V4.75061H4.72559V35.2494Z" fill="#FFF800"/>
<path d="M54.8618 5.89075H51.4122H50.0891H48.1044H45.0329C44.3714 5.89075 43.8516 6.41331 43.8516 7.0784V26.1283C43.8516 26.7934 44.3714 27.3159 45.0329 27.3159H48.1044H50.0891C50.7507 27.3159 51.2705 26.7934 51.2705 26.1283V18.2423H54.8618C58.2641 18.2423 61.0048 15.4869 61.0048 12.0665C61.0048 8.64609 58.2168 5.89075 54.8618 5.89075ZM48.9078 24.9406H48.1044H46.2143V8.26604H48.1044H48.9078V24.9406ZM54.8618 15.867H51.2705V8.26604H51.4122H54.8618C56.941 8.26604 58.6421 9.97626 58.6421 12.0665C58.6421 14.1568 56.941 15.867 54.8618 15.867Z" fill="#062825"/>
<path d="M76.6935 8.26604C77.3551 8.26604 77.8749 7.74348 77.8749 7.0784C77.8749 6.41331 77.3551 5.89075 76.6935 5.89075H69.8417H67.3372H64.8327C64.1712 5.89075 63.6514 6.41331 63.6514 7.0784V26.1283C63.6514 26.7934 64.1712 27.3159 64.8327 27.3159H67.3372H69.8417H76.6935C77.3551 27.3159 77.8749 26.7934 77.8749 26.1283C77.8749 25.4632 77.3551 24.9406 76.6935 24.9406H71.023V17.8147H76.6935C77.3551 17.8147 77.8749 17.2922 77.8749 16.6271C77.8749 15.962 77.3551 15.4394 76.6935 15.4394H71.023V8.26604H76.6935ZM68.6603 24.9406H67.3372H66.0141V8.26604H67.3372H68.6603V24.9406Z" fill="#062825"/>
<path d="M86.9481 5.89075H81.9392C81.2776 5.89075 80.7578 6.41331 80.7578 7.0784V26.1283C80.7578 26.7934 81.2776 27.3159 81.9392 27.3159H86.9481C87.6097 27.3159 88.1295 26.7934 88.1295 26.1283V7.0784C88.1295 6.41331 87.6097 5.89075 86.9481 5.89075ZM85.7668 24.9406H83.1205V8.26604H85.7668V24.9406Z" fill="#062825"/>
<path d="M99.6115 5.89075H97.0126H95.1224H92.0036C91.3421 5.89075 90.8223 6.41331 90.8223 7.0784V26.1283C90.8223 26.7934 91.3421 27.3159 92.0036 27.3159H95.1224H97.0126H99.6115C105.14 27.3159 111 23.563 111 16.5796C111 9.59621 105.14 5.89075 99.6115 5.89075ZM95.8312 24.9406H95.1224H93.185V8.26604H95.1224H95.8312V24.9406ZM99.6115 24.9406H98.1939V8.26604H99.6115C103.108 8.26604 108.637 10.5463 108.637 16.6271C108.637 22.7078 103.108 24.9406 99.6115 24.9406Z" fill="#062825"/>
<path d="M19.7522 0H17.5313H2.36271C1.03959 0 0 1.04513 0 2.3753V37.6247C0 38.9549 1.03959 40 2.36271 40H8.78927C13.3729 40 17.295 37.1972 18.9962 33.2067H19.7522C23.9579 33.2067 28.2107 31.734 31.424 29.2162C34.1175 27.0784 37.3308 23.1354 37.3308 16.6271C37.3308 5.84323 28.258 0 19.7522 0ZM15.1686 28.8361C15.1686 32.3515 12.3333 35.2494 8.78927 35.2494H4.72542V4.75059H15.1686V28.8361ZM19.894 28.4561V4.75059C24.9029 4.7981 32.6526 8.0285 32.6526 16.6271C32.6526 25.2257 24.8557 28.4086 19.894 28.4561Z" fill="#062825"/>
</svg>
